<svg width="18" height="18" viewBox="0 0 18 18" fill="none" xmlns="http://www.w3.org/2000/svg">
<path d="M10.372 7.6274C9.64397 6.89966 8.65672 6.49084 7.62733 6.49084C6.59794 6.49084 5.61069 6.89966 4.88264 7.6274L2.13707 10.3721C1.40902 11.1001 1 12.0876 1 13.1172C1 14.1468 1.40902 15.1343 2.13707 15.8623C2.86512 16.5904 3.85258 16.9994 4.8822 16.9994C5.91182 16.9994 6.89928 16.5904 7.62733 15.8623L8.99967 14.49" stroke="#525252" stroke-width="2" stroke-linecap="round" stroke-linejoin="round"/>
<path d="M7.62793 10.372C8.35597 11.0998 9.34322 11.5086 10.3726 11.5086C11.402 11.5086 12.3893 11.0998 13.1173 10.372L15.8629 7.62733C16.5909 6.89928 16.9999 5.91182 16.9999 4.8822C16.9999 3.85258 16.5909 2.86512 15.8629 2.13707C15.1348 1.40902 14.1474 1 13.1177 1C12.0881 1 11.1007 1.40902 10.3726 2.13707L9.00027 3.50941" stroke="#525252" stroke-width="2" stroke-linecap="round" stroke-linejoin="round"/>
</svg>
