<svg width="24" height="24" viewBox="0 0 24 24" fill="none" xmlns="http://www.w3.org/2000/svg">
<path fill-rule="evenodd" clip-rule="evenodd" d="M5.04348 6.34146H18.9565C19.2333 6.34146 19.4987 6.21812 19.6944 5.99856C19.8901 5.77901 20 5.48123 20 5.17073C20 4.86023 19.8901 4.56245 19.6944 4.3429C19.4987 4.12334 19.2333 4 18.9565 4H5.04348C4.76673 4 4.50132 4.12334 4.30563 4.3429C4.10994 4.56245 4 4.86023 4 5.17073C4 5.48123 4.10994 5.77901 4.30563 5.99856C4.50132 6.21812 4.76673 6.34146 5.04348 6.34146ZM18.9565 10.8293H5.04348C4.76673 10.8293 4.50132 10.9526 4.30563 11.1722C4.10994 11.3917 4 11.6895 4 12C4 12.3105 4.10994 12.6083 4.30563 12.8278C4.50132 13.0474 4.76673 13.1707 5.04348 13.1707H18.9565C19.2333 13.1707 19.4987 13.0474 19.6944 12.8278C19.8901 12.6083 20 12.3105 20 12C20 11.6895 19.8901 11.3917 19.6944 11.1722C19.4987 10.9526 19.2333 10.8293 18.9565 10.8293ZM18.9565 17.6585H5.04348C4.90645 17.6585 4.77076 17.6888 4.64416 17.7477C4.51756 17.8065 4.40252 17.8927 4.30563 18.0014C4.20873 18.1101 4.13187 18.2392 4.07943 18.3812C4.02699 18.5233 4 18.6755 4 18.8293C4 18.983 4.02699 19.1352 4.07943 19.2773C4.13187 19.4193 4.20873 19.5484 4.30563 19.6571C4.40252 19.7658 4.51756 19.852 4.64416 19.9109C4.77076 19.9697 4.90645 20 5.04348 20H18.9565C19.0936 20 19.2292 19.9697 19.3558 19.9109C19.4824 19.852 19.5975 19.7658 19.6944 19.6571C19.7913 19.5484 19.8681 19.4193 19.9206 19.2773C19.973 19.1352 20 18.983 20 18.8293C20 18.6755 19.973 18.5233 19.9206 18.3812C19.8681 18.2392 19.7913 18.1101 19.6944 18.0014C19.5975 17.8927 19.4824 17.8065 19.3558 17.7477C19.2292 17.6888 19.0936 17.6585 18.9565 17.6585Z" fill="#303030"/>
</svg>
