<svg width="24" height="24" viewBox="0 0 24 24" fill="none" xmlns="http://www.w3.org/2000/svg">
<path d="M20.6903 19.1921L16.6253 15.1273C17.5826 13.8586 18.1571 12.2863 18.1571 10.5782C18.1571 6.39954 14.7565 3 10.5785 3C6.39971 3.00088 3 6.40042 3 10.579C3 14.7568 6.39971 18.1572 10.5785 18.1572C12.2859 18.1572 13.8591 17.5828 15.1279 16.6255L19.1929 20.6903C19.3994 20.8968 19.6703 21 19.9412 21C20.2121 21 20.4829 20.8968 20.6903 20.6894C21.1032 20.2765 21.1032 19.6059 20.6903 19.1921ZM5.11765 10.579C5.11765 7.56772 7.56706 5.11843 10.5785 5.11843C13.5891 5.11843 16.0385 7.56772 16.0385 10.5782C16.0385 13.5886 13.5891 16.0379 10.5785 16.0379C7.56706 16.0388 5.11765 13.5895 5.11765 10.579Z" fill="#303030"/>
</svg>
