<?xml version="1.0" standalone="no"?>
<!DOCTYPE svg PUBLIC "-//W3C//DTD SVG 20010904//EN"
 "http://www.w3.org/TR/2001/REC-SVG-20010904/DTD/svg10.dtd">
<svg version="1.0" xmlns="http://www.w3.org/2000/svg"
 width="747.000000pt" height="262.000000pt" viewBox="0 0 747.000000 262.000000"
 preserveAspectRatio="xMidYMid meet">

<g transform="translate(0.000000,262.000000) scale(0.100000,-0.100000)"
fill="#000000" stroke="none">
<path d="M1082 2258 c-98 -199 -371 -754 -607 -1232 -410 -831 -428 -869 -409
-883 35 -27 148 -80 214 -101 304 -98 583 -23 816 219 76 80 128 148 188 246
l38 62 39 -20 c28 -14 39 -16 39 -7 -1 7 -20 76 -44 153 -31 98 -48 139 -57
137 -34 -7 -279 -106 -279 -112 0 -3 15 -13 33 -22 l32 -16 -78 -75 c-55 -54
-99 -87 -154 -114 -71 -35 -83 -38 -164 -38 -54 0 -93 5 -100 12 -9 9 78 214
374 885 l385 873 28 -2 c16 -1 54 -15 84 -31 82 -41 105 -89 104 -207 -1 -73
-7 -109 -34 -190 -43 -133 -147 -417 -259 -709 -51 -131 -90 -240 -88 -242 2
-2 37 9 77 26 40 16 74 30 76 30 1 0 15 -39 29 -87 18 -58 30 -82 35 -73 17
32 263 700 320 868 76 224 99 328 107 472 6 128 -4 196 -42 278 -63 135 -230
226 -472 257 l-52 7 -179 -364z"/>
<path d="M800 2210 c-358 -76 -645 -345 -757 -707 -25 -83 -27 -100 -27 -278
0 -179 1 -195 28 -280 32 -103 91 -229 143 -299 l36 -50 43 86 43 86 -34 63
c-64 118 -87 208 -93 360 -6 191 22 311 111 464 118 203 344 359 574 398 l78
13 42 75 c23 41 42 77 42 82 2 13 -143 6 -229 -13z"/>
<path d="M2001 1958 c-21 -69 -381 -1297 -381 -1302 0 -3 116 -6 258 -6 l258
0 42 118 c23 64 42 123 42 130 0 9 -31 12 -120 12 -76 0 -120 4 -120 10 0 6
19 73 42 150 l42 139 120 3 120 3 28 90 c15 50 30 102 34 118 l6 27 -116 0
c-86 0 -116 3 -116 13 0 6 18 71 39 142 l39 130 123 5 124 5 18 55 c9 30 26
85 36 123 l19 67 -263 0 -263 0 -11 -32z"/>
<path d="M2600 1977 c0 -8 -38 -303 -85 -657 -47 -354 -85 -649 -85 -657 0
-11 29 -13 151 -11 l151 3 289 659 c159 362 289 663 289 668 0 5 -64 7 -142 6
l-142 -3 -115 -288 c-64 -158 -117 -283 -119 -278 -2 5 17 128 42 274 26 145
46 271 46 280 0 15 -17 17 -140 17 -110 0 -140 -3 -140 -13z"/>
<path d="M3371 1958 c-25 -80 -381 -1295 -381 -1301 0 -4 116 -7 258 -7 l258
0 42 118 c23 64 42 123 42 130 0 9 -31 12 -120 12 -76 0 -120 4 -120 10 0 6
19 73 41 150 l42 139 121 3 121 3 32 110 c18 61 33 113 33 118 0 4 -52 7 -115
7 -85 0 -115 3 -115 13 0 6 18 71 39 142 l39 130 118 3 c65 1 122 6 126 10 4
4 21 55 38 112 17 58 33 111 35 118 3 9 -53 12 -260 12 l-263 0 -11 -32z"/>
<path d="M3986 1973 c-207 -703 -386 -1314 -386 -1318 0 -3 59 -4 132 -3 l132
3 75 254 76 253 7 -108 c4 -60 10 -175 13 -256 l7 -148 114 0 c63 0 114 2 114
5 0 3 351 1202 386 1318 5 16 -6 17 -130 17 l-135 0 -19 -62 c-11 -35 -44
-146 -73 -247 l-54 -185 -6 165 c-3 90 -7 201 -8 247 l-1 82 -119 0 c-105 0
-120 -2 -125 -17z"/>
<path d="M4818 1978 c-77 -20 -80 -28 -247 -596 -139 -474 -153 -528 -149
-582 4 -51 9 -65 37 -94 43 -44 88 -56 214 -56 l105 0 -14 -47 c-8 -25 -12
-48 -10 -50 2 -2 72 30 154 71 l151 76 22 72 c12 40 59 199 104 354 45 154 86
291 90 303 l7 22 -163 -3 -163 -3 -33 -110 c-18 -60 -33 -113 -33 -117 0 -5
12 -8 26 -8 20 0 25 -4 22 -17 -3 -10 -24 -84 -48 -165 l-43 -148 -64 0 c-49
0 -65 4 -70 16 -6 16 222 809 240 831 6 9 56 13 160 15 l151 3 33 110 c18 61
33 116 33 123 0 15 -454 16 -512 0z"/>
<path d="M5331 1333 c-107 -362 -196 -664 -198 -670 -4 -10 51 -13 255 -13
238 0 260 1 267 18 14 34 85 234 85 238 0 2 -57 4 -126 4 -97 0 -125 3 -122
13 3 6 22 74 44 149 l39 138 121 0 121 0 34 118 35 117 -118 3 c-65 1 -118 5
-118 7 0 2 18 66 40 141 22 75 40 139 40 141 0 1 56 3 124 3 110 0 125 2 130
18 2 9 18 62 35 118 17 56 31 104 31 108 0 3 -118 6 -263 6 l-263 0 -193 -657z"/>
<path d="M5951 1362 c-102 -345 -191 -646 -198 -670 l-12 -43 141 3 141 3 82
280 82 280 57 3 c42 2 58 -1 62 -12 4 -11 -100 -388 -146 -529 l-9 -28 141 3
142 3 78 265 c80 271 87 312 53 340 -21 18 -19 24 14 37 16 6 36 21 44 34 21
33 157 498 157 538 0 50 -24 87 -70 105 -34 13 -84 16 -308 16 l-267 0 -184
-628z m519 393 c11 -13 5 -41 -30 -158 -23 -78 -49 -150 -58 -159 -11 -13 -30
-18 -74 -18 -32 0 -58 3 -58 8 0 4 14 52 30 107 17 55 40 130 51 168 l20 67
53 0 c36 0 58 -5 66 -15z"/>
<path d="M6976 1980 c-35 -11 -63 -36 -83 -73 -23 -45 -175 -568 -176 -608 -3
-81 47 -109 196 -109 48 0 87 -3 87 -7 0 -21 -64 -231 -76 -250 -13 -21 -22
-23 -151 -25 l-137 -3 -38 -125 c-21 -69 -38 -126 -38 -127 0 -2 110 -3 245
-3 253 0 292 5 323 43 21 25 182 582 182 630 0 84 -37 109 -176 116 l-101 6
38 133 c21 74 43 140 50 148 9 11 42 14 145 14 118 0 133 2 138 18 2 9 18 62
35 118 17 56 31 104 31 108 0 9 -461 6 -494 -4z"/>
<path d="M1544 571 c-65 -51 -143 -97 -219 -127 -56 -22 -67 -32 -112 -97 -28
-40 -60 -81 -72 -91 -33 -30 -25 -38 27 -30 144 21 321 94 441 183 61 45 201
181 201 195 0 3 -49 6 -109 6 l-108 0 -49 -39z"/>
</g>
</svg>
